<svg id="Layer_1" data-name="Layer 1" xmlns="http://www.w3.org/2000/svg" viewBox="0 0 2883.75 1053.33"><defs><style>.cls-1,.cls-2{fill:#fc9c12;}.cls-2{font-size:330px;font-family:PoorRichard-Regular, Poor Richard;}</style></defs><path class="cls-1" d="M1099.32,346.09c-3.67-39.69-52.16-70.24-89-55.87-14.5,5.65-27.72,17.9-33.43,32.64-1.57,4-4.32,25.05,5.18,22.94,4.22-.94,10.28-15.95,13.24-18.81,14.94-14.43,47.64-13.91,59.49,4.09,9.25,14.05,12.67,31.82,1.3,46.27-15.61,19.84-41.32,17.54-63.79,16.17-20.62-1.26-41.18-8.3-60.52-15.43-33.12-12.21-68.61-27.07-104.4-28,15-33.15,23.08-73.05,23.21-109.25A300.16,300.16,0,0,0,832,135.42c-11.31-30.1-30.69-61.8-55.23-82.9C737.71,19,675.4,13,632.52,43c-27.26,19.08-43.4,54.65-75.56,66.46-30.21,11.09-32-28-34.08-49-2.12-21.37-7-42.31-31-48.26-12.22-3-24.74,1.93-36.75,4.23-4,.77-14.48,3.63-18.22.73-2.28-1.76-2.18-5.13-3.21-7.7C430,0,423.26-3.55,415.59,4.37c-10,10.31-6.06,25.48,5.06,32.33,10.81,6.64,23.45,5.9,35.4,3.65,10-1.89,22.27-6.91,32.55-4.66,14.56,3.19,10.3,21,8.71,31.62-2.13,14.27-4.09,28.91.89,42.86,5.35,15,17.34,29.3,30.45,38.14,22.54,15.23,52,6.93,73.28-6.93C640.08,116.53,691.08,52,740,92.66c32.7,27.19,35.92,83.41,35.72,122.22-.15,29.86-8,57.89-20.35,84.79-8.93,19.4-20.24,35.33-34.71,50.93-16.29,17.58-29.83,32.12-53.54,40.23s-40.39,10.28-60.31-6.33c-10.95-9.13-15.9-19.72-23.47-31.33-6.31-9.68-15.93-15.94-24.56-23.24-11.53-9.74-20.59-22.83-21.49-38.32-.89-15.27,5.32-30.65-1.46-45.41-4.19-9.12-13.19-14.18-20.86-20-9.73-7.45-14.5-16.58-19.56-27.43C472.69,150,429.26,122.87,375.81,121c-41.12-1.43-88-2.33-124.87,18-46.35,25.5-80.93,87-50.55,137.49,26.66,44.29,73.43,61.4,122.26,68.58,15,2.2,33.27,1.89,34.33,21.07.76,13.81-15.66,12.06-25.73,13.65-8.46,1.35-17.77,2.4-25.54,6.09-11.29,5.38-18.93,15.27-27.51,23.92,9.44-9.93-12.59-46.44-18.83-54.4-14.33-18.32-39.64-28.87-62.53-31.65C157.18,318.9,111.62,352.81,91,384.18c-11.83,18-18.23,35.5-18.56,57.08-.53,35.07,21.05,75,53.68,89.23,27,11.81,62.26,12.26,90.26,3.79-3.26,7.56-3.88,15.53-9.33,22.41-7.55,9.53-16.55,10.69-27.91,9.95-5.29-.35-14-2.65-12.89,5.1.64,4.63,6.58,8.5,10.21,10.46,5.69,3.08,12,4,18.35,3.69,24.78-1.13,43.53-19.52,54.43-40.48,3.48-6.69,2.9-13.95,5.47-20.62,2.1-5.48,4.27-3.9,11-5.82,20.37-5.84,35.92-17.35,52.59-29.65,5.69-4.19,11.34-8.44,17.05-12.61s11.66-10.92,11.47-1.81c-.29,13.67-14.88,29.92-23.11,39.22-13.59,15.36-28,29.92-44.86,41.73-15.95,11.19-33.31,20.44-50.26,30-11.54,6.5-23.51,8.38-35.55,12.86-17.26,6.42-30.93,22.33-45.21,33.36-13.4,10.37-27.57,20.79-42.86,28.32-18.87,9.28-52.32,5.34-57.39-19.3a34.78,34.78,0,0,1,6.16-27c6.09-8.47,19.86-16,30-9,6.15,4.25,7,15.39,3.89,21.64-1.94,3.93-6.74,6.3-1.35,9.69,10.39,6.52,23.53-7.85,25.34-16.83,5-24.74-18.82-43.78-41.81-43.85-20.19-.07-42.91,10.87-55.9,26.4-17.68,21.13-17.46,48.17-5.24,72C29,713.7,80.2,717.27,118,706.05c7.8-2.32,16-4.54,23.19-8.38-3.71,15.21.83,32.77,4.2,47.51,4,17.34,8.85,32,20.47,45.79,22.58,26.81,53.34,34.68,87.13,32.31s73.76-18.54,87.85-51.48c8.83-20.66,15.14-38.55,15.12-61.57,0-30.36-8.18-57.92-23.88-83.84,31.42-23.61,64.59-42.21,88.42-74.77-.73,10.25.57,19.7-2.09,30-3.07,11.9-8.58,23.32-13.17,34.73-5.16,12.84-10.92,25.3-16.89,37.79-17.7,37-33,78.65-27.47,120.25,9.05,68.32,99.18,114.53,77,188.59-6.15,20.54-16.69,43.17-35.81,54.72a60.53,60.53,0,0,1-36.21,8.94c-18.27-1.35-29.42-10.21-45.33-17.74-12.3-5.83-16.75.19-9.14,10.84,5.3,7.42,11.66,12.16,19,17.23,9.09,6.33,18.19,13.42,29.44,15.55,8.63,1.63,19.05.52,27.8-.61,89.69-11.63,122.12-127.12,84.35-198.74-9.89-18.74-23.7-34.37-34.51-52.31-14-23.23-13.94-47.17-5.13-72.4,14.48-41.45,52.09-71.72,69.16-112.1,3.53-8.37,5.38-17.17,7.71-25.91-.58,3.4,1.56,8.11,2,11.63a121.48,121.48,0,0,1,.94,17.47c-.16,15.48-2,31.08-3.55,46.48-1.4,13.54-3.68,26.58-6.33,39.93-6.29,31.7-12.68,64.24-13.12,96.67-.46,33.93,5.78,67.56,17.37,99.42,9,24.85,23.23,44.51,40.77,63.89A182.12,182.12,0,0,0,584.88,998c18.47,11.7,36.61,24.9,56.56,33.92,21.95,9.93,46.93,18.9,71.16,20.43,27.26,1.74,51.22-26,32.35-51.24-4.24-5.68-10.45-9.11-16.61-12.31-2.74-1.43-8.13-5.56-11.16-3.87-6,3.39,2.28,10.54,4.89,13.15,3.28,3.27,6.76,6.16,8.78,10.49,6.78,14.58-10.25,21.5-22.17,21.52-24.67,0-48.63-10.08-69.16-23.13-31.06-19.73-53.63-58.15-62.16-93.3-4.55-18.79-7-38.33-8.49-57.6-1.47-18.52-3.76-38.33-.63-56.87,7.74,19.06,25.53,37.62,39.46,52.6,19,20.42,48.69,31.9,75.76,36.25,28.06,4.51,57.29-5.84,73.39-30.78,11.63-18,21.15-48.28,19.87-70.45-2-34.64-34.2-50.46-63-60.55-16-5.6-38.9-10.14-47.7-26.21-2.87-5.24-3.49-12,2.74-14.31,8.5-3.22,16.84,5.87,23.36,9,14.77,7.1,5.48-21-3.21-25.68-13.4-7.26-32.41-5.45-42.93,5.81-13,13.94-8,34.31,1.25,48.78,7.05,11,17,17.57,28.63,23.15,19.71,9.46,52.41,16.85,55.09,43.43,2.1,20.8-16,35.15-35.23,35.68-21.08.57-35.69-12.36-46.58-29.18-25.42-39.26-32.9-94.17-11.56-137,3.27-6.57,2.92-6,9.85-5.46q14.12,1,28.11,3c15.2,2.18,30.39,4.7,45.14,9,28.24,8.27,51.81,22.79,55.66,54.45,3.46,28.53,1.87,60,22.75,82.46,22,23.63,55.62,27.88,84.61,16.85,19.86-7.56,36.83-20.13,45.82-39.9a76.11,76.11,0,0,0,6.25-26.07c.29-3.85,2.4-25-6.2-16.68-2.45,2.37-4.3,11.72-6.37,15.19a82.13,82.13,0,0,1-20.87,22.93c-10.46,8.09-23.06,15-36.7,13.9-30.86-2.58-47.27-29.18-46.61-58.68.64-28.7,7.88-65.1-17.69-86-5.9-4.82-12.51-9-18.81-13.29,9.29,2,19.42-.1,28.64-1.35a223.65,223.65,0,0,0,44.44-10.28c21.81-7.59,41.65-20.41,54.15-40.29,17.51-27.85,21.93-62.06.9-89.5-12.49-16.29-28.87-26.54-45.05-38.67-11.57-8.66-25-16.33-34.58-27.23-2.92-3.31-5.2-6.6-3.24-11.19,3.43-8,14.14-5.13,21.08-4.22,24.71,3.24,49.61,8,73.34,15.65,32.38,10.51,60.88,25.42,96.25,22.6,29.73-2.38,59.24-14.16,72.68-42.81C1099,387.55,1101.33,364.47,1099.32,346.09Zm-880,77.51c-2.06,15-8.16,29.92-6,45.24-6.81-1.46-16.36,2.25-23.19,3.2-10.39,1.44-19.86.76-29.68-3.05-8.6-3.33-18.08-6.73-26-11.5-12.2-7.37-15.32-21.28-13.82-34.87,3.21-29.13,42.59-39.38,66.65-41.49C214.48,378.74,222.14,400,219.34,423.6ZM295.17,710c-2.05,20.39-23.71,46.2-46.7,40.18-19.19-5-34.89-27-30.23-46.69,4.48-19,30.71-37.83,48.65-43.61,2.55-.82,7.36-2.35,10.26-2.3,5.42.1,5.72,2.22,8.45,7.17C293.15,678.4,296.89,694.29,295.17,710ZM828,498.93c9.19,11.59,14.64,21.38,5.84,35.31-6.91,10.94-21.6,14.25-33.6,15a96.15,96.15,0,0,1-37.7-5.69c-19.25-6.81-33-16.58-47.56-30.48-10.7-10.21-19.3-21.89-29.68-32.28,25.23-5.21,59.05-9,75.14-32.25,5,8,15.81,12.47,23.3,17.85,4.56,3.28,9.08,6.58,13.8,9.63C807.92,482.72,820.43,489,828,498.93Z"/><text class="cls-2" transform="translate(1100 463.37)">El Consultorio<tspan x="0" y="396">del Pescador</tspan></text></svg>