<?xml version="1.0" encoding="UTF-8"?>
<svg xmlns="http://www.w3.org/2000/svg" xmlns:xlink="http://www.w3.org/1999/xlink" width="384.91pt" height="146.61pt" viewBox="0 0 384.91 146.61" version="1.1">
<defs>
<clipPath id="clip1">
  <path d="M 0 0 L 124 0 L 124 146.609375 L 0 146.609375 Z M 0 0 "/>
</clipPath>
<clipPath id="clip2">
  <path d="M 157 102 L 187 102 L 187 146.609375 L 157 146.609375 Z M 157 102 "/>
</clipPath>
<clipPath id="clip3">
  <path d="M 358 114 L 384.910156 114 L 384.910156 146.609375 L 358 146.609375 Z M 358 114 "/>
</clipPath>
<clipPath id="clip4">
  <path d="M 212 114 L 240 114 L 240 146.609375 L 212 146.609375 Z M 212 114 "/>
</clipPath>
<clipPath id="clip5">
  <path d="M 286 114 L 311 114 L 311 146.609375 L 286 146.609375 Z M 286 114 "/>
</clipPath>
<clipPath id="clip6">
  <path d="M 317 114 L 341 114 L 341 146.609375 L 317 146.609375 Z M 317 114 "/>
</clipPath>
<clipPath id="clip7">
  <path d="M 241 114 L 268 114 L 268 146.609375 L 241 146.609375 Z M 241 114 "/>
</clipPath>
<clipPath id="clip8">
  <path d="M 191 114 L 211 114 L 211 146.609375 L 191 146.609375 Z M 191 114 "/>
</clipPath>
<clipPath id="clip9">
  <path d="M 346 114 L 353 114 L 353 146.609375 L 346 146.609375 Z M 346 114 "/>
</clipPath>
<clipPath id="clip10">
  <path d="M 273 114 L 279 114 L 279 146.609375 L 273 146.609375 Z M 273 114 "/>
</clipPath>
</defs>
<g id="surface1">
<path style=" stroke:none;fill-rule:nonzero;fill:rgb(56.098938%,72.499084%,16.099548%);fill-opacity:1;" d="M 68.785156 44.097656 C 68.785156 40.253906 68.78125 36.410156 68.789063 32.566406 C 68.792969 30.160156 70.113281 28.785156 72.5 28.835938 C 75.347656 28.894531 78.253906 28.746094 81.03125 29.257813 C 88.28125 30.59375 93.429688 37.496094 93.058594 44.945313 C 92.6875 52.363281 86.941406 58.714844 79.703125 59.464844 C 77.113281 59.734375 74.472656 59.621094 71.855469 59.546875 C 70.019531 59.496094 68.800781 58.058594 68.792969 56.140625 C 68.777344 52.125 68.785156 48.113281 68.785156 44.097656 "/>
<g clip-path="url(#clip1)" clip-rule="nonzero">
<path style=" stroke:none;fill-rule:nonzero;fill:rgb(56.098938%,72.499084%,16.099548%);fill-opacity:1;" d="M 123.675781 57.261719 C 123.71875 57.644531 123.796875 58.03125 123.796875 58.414063 C 123.804688 83.980469 123.8125 109.546875 123.796875 135.117188 C 123.789063 141.515625 119.789063 145.640625 113.386719 145.984375 C 113.011719 146.003906 112.636719 146.023438 112.261719 146.023438 C 93.300781 146.019531 74.339844 146.054688 55.375 145.988281 C 46.449219 145.957031 37.746094 144.523438 29.507813 140.921875 C 16.785156 135.363281 8.507813 125.722656 3.921875 112.753906 C 1.019531 104.542969 -0.00390625 96.035156 0.00390625 87.363281 C 0.0195313 61.285156 0.0117188 35.210938 0 9.132813 C 0 7.144531 0.335938 5.265625 1.449219 3.59375 C 3.265625 0.875 6.03125 0.0664063 9.074219 0.03125 C 14.246094 -0.03125 19.421875 0.0117188 24.597656 0.0117188 C 38.488281 0.0117188 52.378906 0.0117188 66.265625 0.0117188 C 66.609375 0.0117188 66.957031 -0.03125 67.285156 0.0273438 C 67.632813 0.0898438 67.957031 0.25 68.292969 0.367188 C 68.160156 0.691406 68.109375 1.09375 67.886719 1.335938 C 64.390625 5.152344 60.867188 8.941406 57.363281 12.75 C 55.832031 14.410156 53.945313 15.085938 51.699219 15.058594 C 47.242188 15.007813 42.78125 15.039063 38.320313 15.050781 C 37.8125 15.054688 37.292969 15.078125 36.804688 15.199219 C 35.847656 15.4375 35.285156 16.066406 35.238281 17.085938 C 35.226563 17.394531 35.230469 17.699219 35.230469 18.007813 C 35.230469 39.351563 35.214844 60.695313 35.242188 82.042969 C 35.25 86.289063 35.15625 90.558594 36.144531 94.742188 C 38.707031 105.570313 46.246094 112.628906 57.269531 114.332031 C 59.980469 114.753906 62.75 114.851563 65.5 114.949219 C 67.84375 115.03125 68.472656 114.3125 68.472656 112 C 68.472656 104.171875 68.472656 96.339844 68.472656 88.511719 C 68.472656 86.222656 69.125 85.570313 71.441406 85.765625 C 78.839844 86.386719 86.132813 85.796875 93.277344 83.773438 C 106.960938 79.898438 116.894531 71.625 122.683594 58.539063 C 122.882813 58.085938 123.113281 57.652344 123.332031 57.210938 C 123.449219 57.230469 123.5625 57.246094 123.675781 57.261719 "/>
</g>
<path style=" stroke:none;fill-rule:nonzero;fill:rgb(32.499695%,34.098816%,34.098816%);fill-opacity:1;" d="M 166.457031 59.425781 C 166.457031 60.820313 166.460938 62.210938 166.453125 63.605469 C 166.453125 64.082031 166.484375 64.519531 167.121094 64.507813 C 169.734375 64.464844 172.367188 64.601563 174.957031 64.324219 C 177.78125 64.015625 179.234375 62.070313 179.195313 59.257813 C 179.160156 56.515625 177.664063 54.707031 174.8125 54.445313 C 172.285156 54.210938 169.722656 54.332031 167.179688 54.289063 C 166.574219 54.28125 166.449219 54.632813 166.453125 55.144531 C 166.464844 56.574219 166.457031 58 166.457031 59.425781 M 170.898438 71.601563 L 170.898438 71.667969 C 169.707031 71.667969 168.515625 71.671875 167.324219 71.667969 C 166.832031 71.667969 166.453125 71.761719 166.457031 72.386719 C 166.464844 75.546875 166.441406 78.710938 166.488281 81.875 C 166.492188 82.128906 166.945313 82.589844 167.191406 82.589844 C 169.875 82.601563 172.570313 82.667969 175.242188 82.46875 C 178.183594 82.25 179.894531 80.171875 179.921875 77.164063 C 179.953125 74.246094 178.261719 72.195313 175.375 71.828125 C 173.898438 71.640625 172.394531 71.671875 170.898438 71.601563 M 183.609375 67.632813 C 184.292969 68.105469 185.035156 68.523438 185.664063 69.078125 C 188.300781 71.398438 189.339844 74.429688 189.269531 77.847656 C 189.140625 84.511719 185.5 88.65625 178.820313 89.769531 C 177.347656 90.015625 175.84375 90.140625 174.351563 90.160156 C 170.097656 90.210938 165.839844 90.183594 161.585938 90.175781 C 158.488281 90.175781 157.09375 88.785156 157.09375 85.675781 C 157.089844 74.203125 157.089844 62.730469 157.09375 51.257813 C 157.097656 48.152344 158.503906 46.742188 161.578125 46.742188 C 166.039063 46.738281 170.496094 46.6875 174.957031 46.765625 C 176.613281 46.796875 178.300781 46.972656 179.90625 47.351563 C 186.480469 48.902344 188.980469 53.824219 188.429688 59.738281 C 188.128906 62.96875 186.6875 65.574219 183.867188 67.320313 C 183.78125 67.371094 183.710938 67.449219 183.640625 67.519531 C 183.621094 67.539063 183.621094 67.582031 183.609375 67.632813 "/>
<path style=" stroke:none;fill-rule:nonzero;fill:rgb(32.499695%,34.098816%,34.098816%);fill-opacity:1;" d="M 208.5 77.363281 L 208.5 77.382813 C 207.785156 77.382813 207.058594 77.292969 206.359375 77.402344 C 205.261719 77.566406 204.132813 77.738281 203.109375 78.144531 C 201.917969 78.617188 201.472656 79.707031 201.488281 80.96875 C 201.503906 82.152344 201.945313 83.171875 203.0625 83.617188 C 205.421875 84.558594 207.820313 84.511719 210.046875 83.257813 C 211.96875 82.171875 211.785156 80.191406 211.769531 78.34375 C 211.769531 78.277344 211.761719 78.210938 211.765625 78.140625 C 211.777344 77.582031 211.5 77.347656 210.949219 77.359375 C 210.132813 77.375 209.316406 77.363281 208.5 77.363281 M 213.644531 87.921875 C 208.609375 91.660156 203.242188 91.679688 197.808594 89.5 C 194.113281 88.019531 192.4375 84.066406 193.136719 79.683594 C 193.679688 76.246094 195.609375 73.945313 198.796875 72.648438 C 200.910156 71.792969 203.132813 71.511719 205.390625 71.480469 C 207.191406 71.457031 208.996094 71.449219 210.800781 71.488281 C 211.585938 71.503906 211.808594 71.175781 211.757813 70.445313 C 211.621094 68.488281 210.503906 67.101563 208.449219 66.523438 C 205.871094 65.792969 203.328125 66.09375 200.8125 66.882813 C 200.261719 67.054688 199.714844 67.242188 199.148438 67.359375 C 197.351563 67.734375 195.777344 67.03125 195.101563 65.578125 C 194.347656 63.957031 194.773438 61.941406 196.226563 60.898438 C 196.957031 60.371094 197.816406 59.957031 198.679688 59.6875 C 202.992188 58.359375 207.378906 58.117188 211.773438 59.203125 C 216.816406 60.445313 219.898438 64.152344 220.171875 69.34375 C 220.316406 72.09375 220.285156 74.855469 220.234375 77.609375 C 220.191406 79.929688 220.457031 82.078125 221.800781 84.117188 C 223.050781 86.007813 222.542969 88.265625 220.953125 89.546875 C 219.265625 90.902344 216.554688 90.910156 215.003906 89.507813 C 214.480469 89.035156 214.078125 88.433594 213.644531 87.921875 "/>
<path style=" stroke:none;fill-rule:nonzero;fill:rgb(32.499695%,34.098816%,34.098816%);fill-opacity:1;" d="M 307.59375 74.761719 C 307.40625 73.183594 307.347656 71.609375 307.015625 70.089844 C 306.429688 67.429688 304.683594 66.085938 302.101563 66.078125 C 299.488281 66.070313 297.738281 67.363281 297.132813 70.027344 C 296.421875 73.148438 296.421875 76.320313 297.140625 79.441406 C 297.75 82.082031 299.523438 83.382813 302.136719 83.359375 C 304.675781 83.335938 306.425781 82 307 79.40625 C 307.335938 77.890625 307.40625 76.316406 307.59375 74.761719 M 316.59375 75.175781 C 316.390625 76.675781 316.277344 78.695313 315.824219 80.632813 C 314.382813 86.757813 310.03125 90.40625 303.742188 90.777344 C 301.992188 90.878906 300.183594 90.828125 298.464844 90.503906 C 293.039063 89.480469 289.652344 86.171875 288.332031 80.828125 C 287.339844 76.796875 287.328125 72.726563 288.3125 68.695313 C 289.808594 62.558594 294.269531 58.910156 300.695313 58.636719 C 302.578125 58.554688 304.527344 58.679688 306.363281 59.085938 C 311.894531 60.320313 315.339844 64.40625 316.191406 70.5 C 316.382813 71.878906 316.433594 73.277344 316.59375 75.175781 "/>
<path style=" stroke:none;fill-rule:nonzero;fill:rgb(32.499695%,34.098816%,34.098816%);fill-opacity:1;" d="M 235.3125 62.058594 C 238.429688 58.699219 242.21875 58.019531 246.355469 58.890625 C 250.601563 59.789063 253.460938 63.265625 253.878906 67.980469 C 254.0625 70.042969 254.023438 72.125 254.035156 74.203125 C 254.054688 78.082031 254.070313 81.960938 254.03125 85.84375 C 253.996094 89.15625 251.628906 91.09375 248.519531 90.433594 C 246.476563 90 245.164063 88.359375 245.144531 86.035156 C 245.109375 81.472656 245.152344 76.914063 245.117188 72.351563 C 245.105469 71.375 245.027344 70.367188 244.769531 69.433594 C 244.164063 67.257813 242.480469 66.097656 240.191406 66.117188 C 237.910156 66.140625 236.269531 67.355469 235.730469 69.570313 C 235.503906 70.484375 235.453125 71.453125 235.445313 72.402344 C 235.417969 76.859375 235.453125 81.320313 235.425781 85.777344 C 235.410156 88.445313 234.039063 90.128906 231.6875 90.496094 C 228.941406 90.917969 226.722656 89.183594 226.570313 86.40625 C 226.476563 84.742188 226.53125 83.070313 226.53125 81.402344 C 226.527344 75.75 226.527344 70.101563 226.53125 64.449219 C 226.53125 63.972656 226.523438 63.496094 226.558594 63.019531 C 226.710938 60.890625 228.035156 59.335938 229.976563 58.988281 C 232.269531 58.578125 234.085938 59.472656 235.03125 61.484375 C 235.101563 61.628906 235.175781 61.777344 235.3125 62.058594 "/>
<path style=" stroke:none;fill-rule:nonzero;fill:rgb(32.499695%,34.098816%,34.098816%);fill-opacity:1;" d="M 258.644531 74.253906 C 258.84375 72.707031 258.9375 70.683594 259.398438 68.746094 C 260.859375 62.566406 265.144531 59.027344 271.484375 58.609375 C 274.378906 58.417969 277.242188 58.664063 279.824219 60.0625 C 281.136719 60.777344 282.371094 61.769531 283.386719 62.871094 C 284.824219 64.429688 284.703125 66.789063 283.371094 68.171875 C 282.03125 69.566406 279.90625 69.707031 278.152344 68.492188 C 277.679688 68.164063 277.242188 67.777344 276.800781 67.402344 C 275.046875 65.902344 273.046875 65.734375 270.957031 66.449219 C 269.433594 66.964844 268.644531 68.222656 268.300781 69.710938 C 267.53125 73.042969 267.460938 76.414063 268.3125 79.722656 C 269.242188 83.335938 273.488281 84.613281 276.488281 82.289063 C 277.078125 81.832031 277.625 81.308594 278.242188 80.890625 C 279.941406 79.734375 282.074219 79.910156 283.375 81.269531 C 284.660156 82.613281 284.742188 84.78125 283.535156 86.433594 C 282.21875 88.230469 280.410156 89.339844 278.324219 90.019531 C 275.035156 91.09375 271.691406 91.191406 268.363281 90.285156 C 262.671875 88.738281 259.9375 84.648438 259.058594 79.085938 C 258.828125 77.648438 258.800781 76.175781 258.644531 74.253906 "/>
<g clip-path="url(#clip2)" clip-rule="nonzero">
<path style=" stroke:none;fill-rule:nonzero;fill:rgb(32.499695%,34.098816%,34.098816%);fill-opacity:1;" d="M 162.71875 115.394531 C 162.71875 117.199219 162.703125 119 162.71875 120.804688 C 162.742188 123.378906 162.378906 123.085938 164.996094 123.074219 C 168.226563 123.0625 171.472656 123.164063 174.679688 122.894531 C 178.71875 122.558594 181.242188 119.679688 181.371094 115.707031 C 181.503906 111.574219 179.277344 108.722656 175.242188 107.917969 C 174.480469 107.765625 173.691406 107.691406 172.914063 107.683594 C 169.886719 107.65625 166.859375 107.691406 163.832031 107.65625 C 163.007813 107.648438 162.683594 107.902344 162.703125 108.761719 C 162.746094 110.972656 162.71875 113.183594 162.71875 115.394531 M 157.074219 124.050781 C 157.074219 117.886719 157.070313 111.726563 157.074219 105.566406 C 157.078125 103.15625 157.78125 102.445313 160.164063 102.445313 C 164.589844 102.441406 169.015625 102.421875 173.4375 102.453125 C 177.132813 102.472656 180.570313 103.371094 183.253906 106.039063 C 187.132813 109.902344 187.707031 114.65625 186.292969 119.671875 C 184.9375 124.488281 181.394531 127.046875 176.621094 127.976563 C 175.328125 128.230469 173.984375 128.292969 172.664063 128.316406 C 169.734375 128.363281 166.808594 128.359375 163.878906 128.316406 C 162.996094 128.300781 162.695313 128.585938 162.703125 129.484375 C 162.738281 133.839844 162.71875 138.199219 162.714844 142.554688 C 162.714844 143.03125 162.695313 143.511719 162.605469 143.976563 C 162.335938 145.359375 161.335938 146.160156 159.9375 146.167969 C 158.5 146.179688 157.425781 145.347656 157.164063 143.957031 C 157.066406 143.460938 157.078125 142.941406 157.078125 142.429688 C 157.070313 136.304688 157.074219 130.175781 157.074219 124.050781 "/>
</g>
<g clip-path="url(#clip3)" clip-rule="nonzero">
<path style=" stroke:none;fill-rule:nonzero;fill:rgb(32.499695%,34.098816%,34.098816%);fill-opacity:1;" d="M 372.964844 132.160156 L 372.960938 132.089844 C 371.433594 132.175781 369.90625 132.238281 368.386719 132.359375 C 367.851563 132.402344 367.316406 132.558594 366.800781 132.722656 C 364.585938 133.421875 363.523438 134.886719 363.527344 137.195313 C 363.535156 139.414063 364.617188 140.921875 366.800781 141.554688 C 369.253906 142.265625 371.71875 142.191406 374.097656 141.238281 C 376.40625 140.308594 377.613281 138.542969 377.699219 136.046875 C 377.734375 135.09375 377.671875 134.140625 377.722656 133.191406 C 377.769531 132.363281 377.398438 132.125 376.632813 132.148438 C 375.410156 132.1875 374.1875 132.160156 372.964844 132.160156 M 378.59375 142.925781 C 376.824219 144.789063 374.757813 145.886719 372.335938 146.289063 C 369.609375 146.738281 366.90625 146.703125 364.265625 145.816406 C 360.457031 144.542969 358.402344 141.597656 358.371094 137.4375 C 358.335938 133.242188 360.265625 130.136719 364.066406 128.945313 C 366.109375 128.304688 368.324219 128.121094 370.480469 127.953125 C 372.542969 127.789063 374.628906 127.894531 376.703125 127.925781 C 377.445313 127.9375 377.796875 127.679688 377.710938 126.921875 L 377.710938 126.816406 C 377.8125 121.511719 375.453125 119.078125 370.144531 119.378906 C 368.21875 119.488281 366.324219 120.21875 364.421875 120.679688 C 364.195313 120.734375 363.992188 120.886719 363.773438 120.980469 C 362.367188 121.566406 361.105469 121.273438 360.53125 120.226563 C 359.878906 119.042969 360.257813 117.5 361.609375 116.835938 C 363.117188 116.089844 364.710938 115.4375 366.34375 115.027344 C 368.832031 114.402344 371.398438 114.417969 373.949219 114.777344 C 379.46875 115.554688 382.621094 119.089844 382.777344 124.882813 C 382.882813 128.792969 382.84375 132.710938 382.800781 136.621094 C 382.78125 138.273438 383.070313 139.792969 383.984375 141.183594 C 384.226563 141.554688 384.429688 141.953125 384.609375 142.351563 C 385.214844 143.6875 384.898438 145.007813 383.824219 145.710938 C 382.628906 146.496094 381.074219 146.300781 380.140625 145.171875 C 379.605469 144.519531 379.175781 143.777344 378.59375 142.925781 "/>
</g>
<g clip-path="url(#clip4)" clip-rule="nonzero">
<path style=" stroke:none;fill-rule:nonzero;fill:rgb(32.499695%,34.098816%,34.098816%);fill-opacity:1;" d="M 233.570313 130.507813 C 233.339844 128.644531 233.253906 126.761719 232.84375 124.949219 C 232.070313 121.503906 229.464844 119.558594 225.886719 119.511719 C 222.253906 119.46875 219.566406 121.378906 218.730469 124.832031 C 217.816406 128.625 217.828125 132.476563 218.730469 136.269531 C 219.558594 139.75 222.191406 141.621094 225.867188 141.589844 C 229.46875 141.558594 232.058594 139.644531 232.839844 136.1875 C 233.257813 134.34375 233.335938 132.421875 233.570313 130.507813 M 239.003906 130.570313 C 238.765625 132.628906 238.699219 134.722656 238.261719 136.734375 C 236.472656 144.992188 229.761719 147.03125 224.347656 146.472656 C 217.976563 145.816406 214.0625 142.074219 213.074219 135.734375 C 212.4375 131.671875 212.382813 127.585938 213.484375 123.582031 C 215.007813 118.066406 219.035156 114.867188 224.753906 114.59375 C 229.152344 114.382813 233.078125 115.46875 235.921875 119.101563 C 237.882813 121.609375 238.535156 124.597656 238.761719 127.695313 C 238.828125 128.644531 238.769531 129.601563 238.769531 130.550781 C 238.847656 130.558594 238.925781 130.566406 239.003906 130.570313 "/>
</g>
<g clip-path="url(#clip5)" clip-rule="nonzero">
<path style=" stroke:none;fill-rule:nonzero;fill:rgb(32.499695%,34.098816%,34.098816%);fill-opacity:1;" d="M 291.777344 118.675781 C 293.339844 116.585938 295.199219 115.414063 297.460938 114.894531 C 299.382813 114.449219 301.308594 114.429688 303.226563 114.878906 C 307.71875 115.925781 310.691406 119.59375 310.878906 124.628906 C 311.03125 128.8125 310.941406 133 310.957031 137.1875 C 310.964844 139.160156 310.972656 141.132813 310.953125 143.105469 C 310.933594 145.058594 309.957031 146.171875 308.304688 146.167969 C 306.652344 146.164063 305.652344 145.03125 305.648438 143.105469 C 305.636719 137.964844 305.652344 132.824219 305.632813 127.6875 C 305.628906 126.773438 305.574219 125.847656 305.421875 124.945313 C 304.871094 121.761719 302.925781 119.90625 299.878906 119.582031 C 296.363281 119.203125 293.527344 120.664063 292.40625 123.613281 C 291.980469 124.734375 291.761719 125.992188 291.746094 127.191406 C 291.675781 132.398438 291.71875 137.605469 291.707031 142.8125 C 291.703125 143.351563 291.679688 143.910156 291.527344 144.421875 C 291.195313 145.542969 290.238281 146.175781 289.046875 146.167969 C 287.867188 146.164063 286.925781 145.511719 286.585938 144.398438 C 286.464844 144.015625 286.417969 143.597656 286.414063 143.195313 C 286.40625 134.789063 286.40625 126.382813 286.414063 117.976563 C 286.414063 116.097656 287.382813 114.992188 289.003906 114.964844 C 290.648438 114.933594 291.609375 115.957031 291.714844 117.851563 C 291.722656 118.019531 291.738281 118.1875 291.777344 118.675781 "/>
</g>
<g clip-path="url(#clip6)" clip-rule="nonzero">
<path style=" stroke:none;fill-rule:nonzero;fill:rgb(32.499695%,34.098816%,34.098816%);fill-opacity:1;" d="M 322.382813 130.914063 C 322.546875 132.378906 322.597656 134.234375 322.992188 136.015625 C 324.230469 141.550781 331.058594 143.5625 335.234375 139.683594 C 335.683594 139.265625 336.089844 138.796875 336.5625 138.414063 C 337.566406 137.601563 338.878906 137.589844 339.757813 138.332031 C 340.636719 139.074219 340.851563 140.382813 340.179688 141.5 C 339.015625 143.433594 337.289063 144.761719 335.210938 145.566406 C 331.300781 147.082031 327.386719 146.964844 323.628906 145.097656 C 319.984375 143.289063 318.144531 140.125 317.480469 136.21875 C 316.855469 132.53125 316.863281 128.832031 317.4375 125.136719 C 318.691406 117.105469 325.015625 114 331.628906 114.648438 C 334.5 114.933594 337.023438 116.035156 339.042969 118.144531 C 339.441406 118.558594 339.8125 119.015625 340.113281 119.503906 C 340.828125 120.667969 340.671875 121.988281 339.78125 122.765625 C 338.859375 123.570313 337.488281 123.511719 336.429688 122.605469 C 336.171875 122.386719 335.9375 122.136719 335.699219 121.890625 C 333.226563 119.351563 330.246094 118.933594 327.050781 120.0625 C 324.253906 121.054688 323.160156 123.429688 322.769531 126.164063 C 322.5625 127.609375 322.523438 129.078125 322.382813 130.914063 "/>
</g>
<g clip-path="url(#clip7)" clip-rule="nonzero">
<path style=" stroke:none;fill-rule:nonzero;fill:rgb(32.499695%,34.098816%,34.098816%);fill-opacity:1;" d="M 255.058594 138.214844 C 255.289063 137.644531 255.441406 137.3125 255.566406 136.972656 C 257.9375 130.449219 260.304688 123.921875 262.683594 117.402344 C 262.867188 116.898438 263.085938 116.378906 263.398438 115.945313 C 264.0625 115.027344 265.222656 114.726563 266.328125 115.101563 C 267.382813 115.457031 268.042969 116.359375 267.980469 117.527344 C 267.945313 118.125 267.78125 118.734375 267.566406 119.296875 C 264.535156 127.136719 261.492188 134.972656 258.4375 142.800781 C 258.191406 143.433594 257.921875 144.066406 257.570313 144.644531 C 256.304688 146.726563 253.5625 146.742188 252.296875 144.664063 C 251.894531 144 251.59375 143.265625 251.3125 142.539063 C 248.328125 134.828125 245.351563 127.113281 242.386719 119.394531 C 242.191406 118.890625 242.003906 118.363281 241.933594 117.832031 C 241.765625 116.554688 242.4375 115.496094 243.585938 115.105469 C 244.808594 114.6875 246.027344 115.09375 246.695313 116.1875 C 246.941406 116.585938 247.113281 117.039063 247.277344 117.484375 C 249.707031 123.988281 252.121094 130.496094 254.546875 137 C 254.671875 137.335938 254.824219 137.660156 255.058594 138.214844 "/>
</g>
<g clip-path="url(#clip8)" clip-rule="nonzero">
<path style=" stroke:none;fill-rule:nonzero;fill:rgb(32.499695%,34.098816%,34.098816%);fill-opacity:1;" d="M 196.714844 118.972656 C 196.9375 118.683594 197.046875 118.5625 197.128906 118.429688 C 199.832031 114.015625 205.789063 113.820313 209 115.601563 C 209.808594 116.050781 210.445313 116.628906 210.570313 117.605469 C 210.820313 119.484375 209.246094 120.9375 207.382813 120.503906 C 206.558594 120.3125 205.769531 119.960938 204.949219 119.753906 C 201.214844 118.820313 198.246094 120.449219 197.203125 124.144531 C 196.820313 125.496094 196.664063 126.953125 196.648438 128.371094 C 196.578125 133.066406 196.625 137.765625 196.617188 142.460938 C 196.613281 143.003906 196.597656 143.554688 196.496094 144.085938 C 196.257813 145.359375 195.257813 146.15625 193.964844 146.167969 C 192.667969 146.183594 191.683594 145.417969 191.386719 144.140625 C 191.3125 143.8125 191.277344 143.46875 191.277344 143.132813 C 191.269531 134.757813 191.269531 126.386719 191.273438 118.011719 C 191.273438 117.742188 191.292969 117.46875 191.339844 117.199219 C 191.585938 115.785156 192.550781 114.960938 193.941406 114.960938 C 195.335938 114.964844 196.304688 115.792969 196.535156 117.210938 C 196.617188 117.730469 196.644531 118.253906 196.714844 118.972656 "/>
</g>
<g clip-path="url(#clip9)" clip-rule="nonzero">
<path style=" stroke:none;fill-rule:nonzero;fill:rgb(32.499695%,34.098816%,34.098816%);fill-opacity:1;" d="M 346.886719 130.472656 C 346.886719 126.289063 346.890625 122.109375 346.882813 117.925781 C 346.882813 116.839844 347.179688 115.902344 348.164063 115.316406 C 349.800781 114.34375 351.851563 115.3125 352.144531 117.1875 C 352.1875 117.453125 352.191406 117.730469 352.191406 118 C 352.191406 126.367188 352.1875 134.730469 352.195313 143.09375 C 352.195313 144.210938 351.949219 145.199219 350.914063 145.804688 C 349.066406 146.890625 346.9375 145.65625 346.902344 143.425781 C 346.851563 140.46875 346.886719 137.511719 346.886719 134.554688 C 346.886719 133.195313 346.886719 131.832031 346.886719 130.472656 "/>
</g>
<g clip-path="url(#clip10)" clip-rule="nonzero">
<path style=" stroke:none;fill-rule:nonzero;fill:rgb(32.499695%,34.098816%,34.098816%);fill-opacity:1;" d="M 273.058594 130.550781 C 273.058594 126.332031 273.046875 122.117188 273.066406 117.902344 C 273.074219 116.082031 274.039063 115.003906 275.613281 114.964844 C 276.980469 114.929688 277.964844 115.671875 278.261719 117.019531 C 278.359375 117.476563 278.375 117.960938 278.375 118.433594 C 278.382813 126.527344 278.382813 134.617188 278.375 142.710938 C 278.371094 143.25 278.339844 143.804688 278.199219 144.320313 C 277.867188 145.554688 276.785156 146.257813 275.488281 146.164063 C 274.253906 146.074219 273.328125 145.246094 273.128906 144.011719 C 273.0625 143.609375 273.0625 143.195313 273.0625 142.789063 C 273.058594 138.710938 273.058594 134.628906 273.058594 130.550781 "/>
</g>
<path style=" stroke:none;fill-rule:nonzero;fill:rgb(32.499695%,34.098816%,34.098816%);fill-opacity:1;" d="M 349.574219 102.105469 C 351.535156 102.121094 353.042969 103.671875 353.015625 105.640625 C 352.988281 107.59375 351.425781 109.089844 349.453125 109.050781 C 347.550781 109.015625 346.054688 107.480469 346.0625 105.570313 C 346.066406 103.617188 347.617188 102.089844 349.574219 102.105469 "/>
<path style=" stroke:none;fill-rule:nonzero;fill:rgb(32.499695%,34.098816%,34.098816%);fill-opacity:1;" d="M 275.597656 109.050781 C 273.699219 109.007813 272.207031 107.457031 272.230469 105.550781 C 272.25 103.585938 273.792969 102.082031 275.765625 102.105469 C 277.695313 102.128906 279.246094 103.734375 279.199219 105.664063 C 279.152344 107.59375 277.554688 109.097656 275.597656 109.050781 "/>
</g>
</svg>
