<svg id="Capa_1" data-name="Capa 1" xmlns="http://www.w3.org/2000/svg" viewBox="0 0 118.11 49.32"><defs><style>.cls-1{fill:#f7941e;}.cls-2{font-size:18px;letter-spacing:0.06em;}.cls-2,.cls-3{fill:#fff;font-family:HelveticaNeueLTStd-Md, Helvetica Neue LT Std;font-weight:500;}.cls-3{font-size:7px;letter-spacing:0.34em;}</style></defs><path class="cls-1" d="M6.63,14.75q0,9.66,0,19.31a16.56,16.56,0,0,1,0-19.31Z" transform="translate(0 -0.26)"/><path class="cls-1" d="M13.6,21.18h12V12.23h4.29V11.07a16.59,16.59,0,0,0-19.35-.21L0,10.74v1.4H13.55C13.57,15.15,13.58,18.17,13.6,21.18Z" transform="translate(0 -0.26)"/><path class="cls-1" d="M13.6,25.73q-.12,6.87-.23,13.75A16.5,16.5,0,0,0,21,40.86a16.68,16.68,0,0,0,7.58-2.31l-3.14-3V28.75h-8Z" transform="translate(0 -0.26)"/><path class="cls-1" d="M32.77,13.8q-.2,13.44-.38,26.87l2.41,1.6V31.91a16.61,16.61,0,0,0-2-18.11Z" transform="translate(0 -0.26)"/><path class="cls-1" d="M39.21.33V49.58h2.07V.26Z" transform="translate(0 -0.26)"/><text class="cls-2" transform="translate(43.5 29.11)">HELIUM</text><text class="cls-3" transform="translate(51.81 37.18)">EXECUTIVE</text><path class="cls-1" d="M22.85,7.05" transform="translate(0 -0.26)"/></svg>