<svg id="Capa_1" data-name="Capa 1" xmlns="http://www.w3.org/2000/svg" viewBox="0 0 1278.32 1228.22"><defs><style>.cls-1{fill:#fff;}</style></defs><path class="cls-1" d="M497,.6c-2.5.2-10.6.8-18,1.4C360.9,11.5,245.6,63.6,160.6,146c-31.7,30.7-56.8,61.4-79.2,96.7C36.5,313.5,10.5,390.5,1.8,478.5c-1.7,17.3-1.7,72,0,90,6.9,73.8,27.3,142.5,60.4,204A523.75,523.75,0,0,0,281.1,988.9c91.9,48.1,199.6,67.7,304.9,55.5,86.8-10,172.8-43,242.7-93.1,5.6-4,10.4-7.3,10.8-7.3s64.1,58.8,141.8,130.7,143.7,132.6,146.7,135c7.2,5.8,23.5,13.8,33.5,16.5,11.6,3.1,35.5,3.1,47,0,60-16.5,88.4-83.7,58.1-137.5-7.8-13.8,7.6.8-191.3-183.1l-108-99.8,8.4-14.2c16.7-28,34-65.7,44.9-97.8a529.27,529.27,0,0,0-9.8-365.6A520.89,520.89,0,0,0,815.9,88C743.3,39.8,664.2,11.6,576,2.5,561.6,1,507.8-.3,497,.6Zm61.4,187.9q98.4,10.5,177.1,73.1c14.1,11.2,40.6,37.7,51.9,51.9,59.4,74.4,84.4,166.8,70.5,260.8-18.3,123.9-108.7,230.8-228.4,270-38.9,12.8-70.7,17.4-113.8,16.4-26.8-.6-40.6-2.2-63.2-7.2A340.43,340.43,0,0,1,229.2,686.9,334.61,334.61,0,0,1,192,466c16-90.9,69.7-172.3,147.5-223.6a333.54,333.54,0,0,1,149.8-53.8C506.2,186.7,541.3,186.7,558.4,188.5Z" transform="translate(-0.53 -0.3)"/></svg>